<?xml version="1.0" encoding="UTF-8" standalone="no"?>
<!-- Created with Inkscape (http://www.inkscape.org/) -->

<svg
   xmlns:dc="http://purl.org/dc/elements/1.1/"
   xmlns:cc="http://creativecommons.org/ns#"
   xmlns:rdf="http://www.w3.org/1999/02/22-rdf-syntax-ns#"
   xmlns:svg="http://www.w3.org/2000/svg"
   xmlns="http://www.w3.org/2000/svg"
   xmlns:sodipodi="http://sodipodi.sourceforge.net/DTD/sodipodi-0.dtd"
   xmlns:inkscape="http://www.inkscape.org/namespaces/inkscape"
   version="1.1"
   id="svg2"
   xml:space="preserve"
   width="4096"
   height="4096"
   viewBox="0 0 4095.9999 4096"
   sodipodi:docname="umbro-logo.svg"
   inkscape:export-filename="G:\Users\suitedoalex\sites\umbro-logo-0.png"
   inkscape:export-xdpi="96"
   inkscape:export-ydpi="96"
   inkscape:version="0.92.2 (5c3e80d, 2017-08-06)"><metadata
     id="metadata8"><rdf:RDF><cc:Work
         rdf:about=""><dc:format>image/svg+xml</dc:format><dc:type
           rdf:resource="http://purl.org/dc/dcmitype/StillImage" /><dc:title></dc:title></cc:Work></rdf:RDF></metadata><defs
     id="defs6"><clipPath
       clipPathUnits="userSpaceOnUse"
       id="clipPath20"><path
         d="M 0,595.276 H 841.89 V 0 H 0 Z"
         id="path18"
         inkscape:connector-curvature="0" /></clipPath><clipPath
       clipPathUnits="userSpaceOnUse"
       id="clipPath36"><path
         d="M 0,0 H 841.89 V 595.275 H 0 Z"
         id="path34"
         inkscape:connector-curvature="0" /></clipPath><clipPath
       clipPathUnits="userSpaceOnUse"
       id="clipPath50"><path
         d="M 0,0 H 841.89 V 595.276 H 0 Z"
         id="path48"
         inkscape:connector-curvature="0" /></clipPath></defs><sodipodi:namedview
     pagecolor="#ffffff"
     bordercolor="#666666"
     borderopacity="1"
     objecttolerance="10"
     gridtolerance="10"
     guidetolerance="10"
     inkscape:pageopacity="0"
     inkscape:pageshadow="2"
     inkscape:window-width="1600"
     inkscape:window-height="837"
     id="namedview4"
     showgrid="false"
     inkscape:zoom="0.10512594"
     inkscape:cx="556.78059"
     inkscape:cy="2137.4812"
     inkscape:window-x="-8"
     inkscape:window-y="-8"
     inkscape:window-maximized="1"
     inkscape:current-layer="g10" /><g
     id="g10"
     inkscape:groupmode="layer"
     inkscape:label="umbro-logo"
     transform="matrix(1.3333333,0,0,-1.3333333,0,4096)"><g
       id="g44"
       transform="matrix(27.255171,0,0,27.255171,-18203.612,-1320.72)"
       inkscape:export-filename="G:\Users\suitedoalex\sites\umbro-logo-4.png"
       inkscape:export-xdpi="10.963916"
       inkscape:export-ydpi="10.963916"><g
         id="g46"
         clip-path="url(#clipPath50)"><g
           id="g52"
           transform="translate(723.871,110.2025)"
           style="fill:#000000"><path
             d="m 0,0 c 0.207,-0.082 0.552,-0.082 0.756,0 l 10.646,4.454 c 0.15,0.063 0.15,0.166 0,0.229 L 0.756,9.131 C 0.552,9.213 0.207,9.213 0,9.131 L -10.64,4.683 c -0.15,-0.063 -0.15,-0.166 0,-0.229 z m 22.756,5.601 c 0.396,-0.177 0.668,-0.569 0.668,-1.035 0,-0.462 -0.272,-0.853 -0.668,-1.031 L 1.216,-5.473 c -0.46,-0.195 -1.207,-0.195 -1.67,0 l -21.543,9.008 c -0.39,0.178 -0.674,0.569 -0.674,1.031 0,0.466 0.284,0.858 0.674,1.036 l 21.543,9.008 c 0.463,0.19 1.21,0.19 1.67,0 z M 47.177,6.727 C 48.006,6.36 48.57,5.532 48.57,4.566 48.57,3.601 47.994,2.774 47.161,2.407 L 2.119,-16.431 c -0.955,-0.397 -2.521,-0.397 -3.479,0 L -46.406,2.407 c -0.832,0.367 -1.402,1.194 -1.402,2.159 0,0.966 0.57,1.8 1.402,2.166 L -1.36,25.561 c 0.958,0.399 2.524,0.399 3.479,0 z M -0.912,20.082 -37.095,4.954 c -0.512,-0.215 -0.512,-0.559 0,-0.773 l 36.183,-15.137 c 0.714,-0.292 1.869,-0.292 2.579,0 L 37.85,4.181 c 0.512,0.214 0.512,0.558 0,0.773 L 1.667,20.082 c -0.71,0.296 -1.865,0.296 -2.579,0"
             style="fill:#000000;fill-opacity:1;fill-rule:nonzero;stroke:none"
             id="path54"
             inkscape:connector-curvature="0" /></g><g
           id="g56"
           transform="translate(742.4896,83.9937)"
           style="fill:#000000"><path
             d="m 0,0 h -0.049 v 2.294 h -3.914 v -12.44 h 4.301 v 5.254 c 0,2.438 1.119,3.89 3.122,3.89 0.504,0 0.97,0 1.445,-0.135 V 2.476 C 4.534,2.532 4.095,2.584 3.674,2.584 1.82,2.584 0.741,1.579 0,0"
             style="fill:#000000;fill-opacity:1;fill-rule:nonzero;stroke:none"
             id="path58"
             inkscape:connector-curvature="0" /></g><g
           id="g60"
           transform="translate(730.4957,76.6873)"
           style="fill:#000000"><path
             d="m 0,0 c -1.494,0 -2.744,1.422 -2.744,3.321 0,1.949 1.095,3.397 2.744,3.397 1.75,0 2.726,-1.497 2.726,-3.224 C 2.726,1.422 1.701,0 0,0 m 1.701,9.898 c -1.716,0 -3.173,-0.503 -4.268,-1.884 h -0.049 v 5.994 H -6.939 V -2.825 h 3.96 v 2.218 h 0.049 c 0.552,-1.39 2.296,-2.507 4.281,-2.507 3.695,0 5.677,3.056 5.677,6.731 0,3.013 -1.888,6.281 -5.327,6.281"
             style="fill:#000000;fill-opacity:1;fill-rule:nonzero;stroke:none"
             id="path62"
             inkscape:connector-curvature="0" /></g><g
           id="g64"
           transform="translate(717.6545,86.5778)"
           style="fill:#000000"><path
             d="M 0,0 C -1.759,0 -3.409,-0.717 -4.412,-2.39 -5.079,-0.765 -6.537,0 -8.305,0 c -1.957,0 -3.677,-0.785 -4.536,-2.584 h -0.043 v 2.294 h -3.918 v -12.44 h 4.299 v 5.254 c 0,2.674 0.905,3.89 2.433,3.89 1.216,0 1.722,-1.051 1.722,-2.455 v -6.689 h 4.299 v 5.254 c 0,2.674 0.909,3.89 2.433,3.89 1.216,0 1.717,-1.051 1.717,-2.455 v -6.689 h 4.301 v 7.332 C 4.402,-2.031 3.585,0 0,0"
             style="fill:#000000;fill-opacity:1;fill-rule:nonzero;stroke:none"
             id="path66"
             inkscape:connector-curvature="0" /></g><g
           id="g68"
           transform="translate(751.828,80.0227)"
           style="fill:#000000"><path
             d="M 0,0 C 0,2.168 1.217,3.742 3.009,3.742 4.921,3.742 5.997,2.111 5.997,0.2 5.997,-2.105 4.863,-3.656 3.009,-3.656 1.381,-3.656 0,-2.102 0,0 m 3.055,6.555 c -4.11,0 -7.238,-2.39 -7.238,-6.521 0,-4.11 3.128,-6.491 7.238,-6.491 4.1,0 7.229,2.381 7.229,6.491 0,4.131 -3.129,6.521 -7.229,6.521"
             style="fill:#000000;fill-opacity:1;fill-rule:nonzero;stroke:none"
             id="path70"
             inkscape:connector-curvature="0" /></g><g
           id="g72"
           transform="translate(686.3833,86.288)"
           style="fill:#000000"><path
             d="m 0,0 v -7.041 c 0,-3.986 2.805,-5.682 6.442,-5.682 3.622,0 6.43,1.696 6.43,5.682 V 0 H 8.579 v -6.694 c 0,-1.53 -0.381,-2.907 -2.137,-2.907 -1.774,0 -2.156,1.377 -2.156,2.907 V 0 Z"
             style="fill:#000000;fill-opacity:1;fill-rule:nonzero;stroke:none"
             id="path74"
             inkscape:connector-curvature="0" /></g></g></g></g></svg>